<svg width="36" height="36" viewBox="0 0 36 36" fill="none" xmlns="http://www.w3.org/2000/svg">
<g clip-path="url(#clip0_11_2)">
<path d="M30.4955 6.26121C28.1302 5.18964 25.6333 4.42943 23.0684 4C22.7174 4.62089 22.3998 5.2597 22.117 5.91376C19.3849 5.50636 16.6065 5.50636 13.8744 5.91376C13.5915 5.25977 13.2739 4.62096 12.9231 4C10.3565 4.43305 7.85792 5.19507 5.4903 6.26681C0.789968 13.1485 -0.484218 19.8593 0.152875 26.4748C2.90551 28.4873 5.98649 30.0179 9.26189 31C9.99941 30.0184 10.652 28.977 11.2128 27.887C10.1477 27.4933 9.11965 27.0076 8.14061 26.4356C8.39827 26.2506 8.65028 26.0601 8.89379 25.8752C11.7426 27.2009 14.8519 27.8883 18 27.8883C21.1481 27.8883 24.2574 27.2009 27.1062 25.8752C27.3525 26.0741 27.6045 26.2646 27.8593 26.4356C26.8784 27.0086 25.8485 27.4952 24.7815 27.8898C25.3416 28.9793 25.9942 30.0198 26.7324 31C30.0106 30.0219 33.0939 28.492 35.8471 26.4776V26.4776C36.5946 18.8057 34.5701 12.1566 30.4955 6.26121ZM12.0198 22.4063C10.2444 22.4063 8.7777 20.812 8.7777 18.8506C8.7777 16.8892 10.1935 15.2808 12.0141 15.2808C13.8348 15.2808 15.2902 16.8892 15.2591 18.8506C15.2279 20.812 13.8291 22.4063 12.0198 22.4063ZM23.9802 22.4063C22.202 22.4063 20.7409 20.812 20.7409 18.8506C20.7409 16.8892 22.1567 15.2808 23.9802 15.2808C25.8037 15.2808 27.2477 16.8892 27.2166 18.8506C27.1854 20.812 25.7895 22.4063 23.9802 22.4063Z" fill="#5865F2"/>
</g>
<defs>
<clipPath id="clip0_11_2">
<rect width="36" height="36" fill="white"/>
</clipPath>
</defs>
</svg>
