<svg width="36" height="27" viewBox="0 0 36 27" fill="none" xmlns="http://www.w3.org/2000/svg">
<g clip-path="url(#clip0_11_2)">
<path d="M30.4955 2.26121C28.1302 1.18964 25.6333 0.429427 23.0684 0C22.7174 0.620889 22.3998 1.2597 22.117 1.91376C19.3849 1.50636 16.6065 1.50636 13.8744 1.91376C13.5915 1.25977 13.2739 0.620964 12.9231 0C10.3565 0.433054 7.85792 1.19507 5.4903 2.26681C0.789968 9.14851 -0.484218 15.8593 0.152875 22.4748C2.90551 24.4873 5.98649 26.0179 9.26189 27C9.99941 26.0184 10.652 24.977 11.2128 23.887C10.1477 23.4933 9.11965 23.0076 8.14061 22.4356C8.39827 22.2506 8.65028 22.0601 8.89379 21.8752C11.7426 23.2009 14.8519 23.8883 18 23.8883C21.1481 23.8883 24.2574 23.2009 27.1062 21.8752C27.3525 22.0741 27.6045 22.2646 27.8593 22.4356C26.8784 23.0086 25.8485 23.4952 24.7815 23.8898C25.3416 24.9793 25.9942 26.0198 26.7324 27C30.0106 26.0219 33.0939 24.492 35.8471 22.4776V22.4776C36.5946 14.8057 34.5701 8.1566 30.4955 2.26121ZM12.0198 18.4063C10.2444 18.4063 8.7777 16.812 8.7777 14.8506C8.7777 12.8892 10.1935 11.2808 12.0141 11.2808C13.8348 11.2808 15.2902 12.8892 15.2591 14.8506C15.2279 16.812 13.8291 18.4063 12.0198 18.4063ZM23.9802 18.4063C22.202 18.4063 20.7409 16.812 20.7409 14.8506C20.7409 12.8892 22.1567 11.2808 23.9802 11.2808C25.8037 11.2808 27.2477 12.8892 27.2166 14.8506C27.1854 16.812 25.7895 18.4063 23.9802 18.4063Z" fill="#5865F2"/>
</g>
<defs>
<clipPath id="clip0_11_2">
<rect width="36" height="27" fill="white"/>
</clipPath>
</defs>
</svg>
